<?xml version="1.0" standalone="no"?><!DOCTYPE svg PUBLIC "-//W3C//DTD SVG 1.1//EN" "http://www.w3.org/Graphics/SVG/1.1/DTD/svg11.dtd"><svg class="icon" width="32px" height="32.00px" viewBox="0 0 1024 1024" version="1.1" xmlns="http://www.w3.org/2000/svg"><path d="M748.766138 676.165079l-70.433862 0c-2.889594 0-5.417989 0.722399-7.946384 2.167196-2.528395 1.444797-3.611993 0-3.611993 2.889594 0 3.250794 0 6.140388 0.361199 9.391182 0.361199 3.250794 0.361199 3.250794 0.361199 5.417989 0 4.334392 3.611993 6.140388 10.835979 4.334392L747.68254 700.365432c7.223986 0 10.835979 3.250794 10.835979 10.11358l0 22.394356c0 7.223986-5.05679 10.835979-15.17037 10.835979l-21.310758 0c-5.417989 0-11.197178 0.361199-17.698765 0.361199-6.140388 0.361199-11.558377 0.722399-16.615168 0.722399l-9.752381 0c-6.140388 0-9.391182 3.611993-9.391182 11.197178l0 43.705115 0 7.585185c0 3.973192-2.889594 5.779189-8.668783 5.779189l-24.922751 0c-9.391182 0-14.086772-3.973192-14.086772-11.919577 0-3.250794 0.361199-9.391182 0.722399-18.782363 0.361199-9.391182 0.361199-23.477954-0.361199-27.089947 0-3.611993-0.361199-6.140388-1.083598-7.223986-0.722399-1.083598-2.528395-1.444797-6.501587-1.444797l-69.350265 0c-9.391182 0-14.086772-4.695591-14.086772-14.447972 0-2.167196 0-5.05679-1.083598-8.307584-0.722399-3.250794-0.722399-4.334392 0-8.307584 0.722399-3.611993 1.805996-6.862787 3.250794-10.11358 1.444797-2.889594 4.334392-3.973192 8.668783-3.250794l13.003175 0 17.337566 0 30.70194 0 10.835979 0 5.417989 0c1.444797 0 2.167196-1.805996 2.167196-5.779189l0-14.447972c0-3.611993-4.334392-5.417989-12.641975-5.417989l-67.183069 0c-2.889594 0-5.417989 0-7.585185-0.361199-2.167196-0.361199-3.250794-2.528395-3.250794-6.140388l0-11.197178c0-5.779189-0.361199-10.11358-1.083598-13.364374-1.444797-4.334392-0.361199-7.946384 3.250794-10.835979 3.611993-3.250794 8.307584-4.334392 14.086772-4.334392 5.779189 0.722399 11.919577 0.722399 18.782363 0.361199 6.862787-0.361199 7.585185-0.361199 11.197178-0.361199l12.641975 0c4.334392 0 5.779189-1.444797 4.334392-4.334392-1.444797-1.805996-2.167196-7.223986-9.029982-16.615168-7.223986-9.752381-18.421164-25.283951-26.006349-35.75873-9.391182-12.641975-20.22716-26.367549-32.146737-40.81552-5.05679-7.946384-3.973192-14.809171 3.250794-19.865961 3.611993-2.167196 7.223986-5.05679 11.197178-8.307584 3.973192-3.250794 8.668783-6.501587 13.725573-9.391182 7.223986-4.334392 13.725573-0.361199 20.22716 11.919577 2.167196 3.250794 6.140388 8.307584 12.280776 16.253968 6.140388 7.946384 12.280776 15.892769 18.782363 24.922751 6.501587 9.029982 12.641975 16.976367 18.421164 23.477954 5.779189 7.223986 9.029982 11.558377 9.752381 13.003175 1.444797 2.889594 3.973192 4.695591 7.946384 5.417989 3.973192 0.722399 6.862787-0.361199 8.307584-3.250794 0.722399-1.444797 3.611993-6.140388 9.029982-14.086772 5.417989-7.585185 11.197178-16.253968 17.698765-26.006349 6.501587-9.752381 12.641975-18.421164 18.059965-27.089947 5.779189-8.307584 9.391182-13.725573 10.835979-15.892769 3.611993-5.05679 6.862787-8.307584 9.029982-9.752381 2.528395-1.444797 6.501587-1.083598 12.641975 1.083598 3.611993 1.444797 7.585185 3.611993 11.558377 6.501587 4.334392 2.889594 7.223986 5.417989 8.668783 6.862787 7.946384 8.307584 10.11358 15.17037 6.501587 20.949559-1.444797 2.167196-5.417989 7.946384-11.558377 16.615168-6.862787 8.668783-13.364374 18.059965-20.949559 28.173545-7.585185 9.752381-14.447972 24.922751-20.22716 33.952734-6.140388 8.668783-9.391182 14.086772-10.47478 15.53157-1.805996 3.611993-1.083598 5.779189 2.528395 6.862787 3.973192 0.722399 7.946384 1.083598 11.197178 1.083598l43.705115 0c3.611993 0 6.501587 1.444797 9.029982 4.334392 2.528395 2.889594 3.973192 5.779189 3.973192 8.668783l0 24.200353C759.602116 673.636684 755.628924 676.165079 748.766138 676.165079L748.766138 676.165079zM748.766138 676.165079" fill="#2c2c2c" /><path d="M297.628219 675.442681l60.681481 0 0 110.888183L297.628219 786.330864 297.628219 675.442681 297.628219 675.442681zM297.628219 675.442681" fill="#2c2c2c" /><path d="M297.628219 514.708995l60.681481 0 0 110.888183L297.628219 625.597178 297.628219 514.708995 297.628219 514.708995zM297.628219 514.708995" fill="#2c2c2c" /><path d="M971.987302 556.969312l0-35.036332 0 0 0-127.503351c0-36.481129-29.618342-66.099471-66.099471-66.099471L118.112169 328.330159c-36.481129 0-66.099471 29.618342-66.099471 66.099471L52.012698 487.619048l0 49.484303 0 15.17037c44.066314 9.752381 77.296649 50.206702 77.296649 98.607407 0 48.400705-33.230335 88.855026-77.296649 98.607407l0 32.869136 0 31.424339 0 92.828219c0 36.481129 29.618342 66.099471 66.099471 66.099471l787.775661 0c36.481129 0 66.099471-29.618342 66.099471-66.099471l0-127.503351 0 0 0-24.561552c-44.066314-9.752381-77.296649-50.206702-77.296649-98.607407C894.690653 607.176014 927.920988 567.082892 971.987302 556.969312L971.987302 556.969312zM911.667019 514.347795c-46.955908 28.534744-78.380247 81.269841-78.380247 141.590123 0 60.320282 31.424339 113.055379 78.380247 141.590123l0 93.911817c0 11.558377-9.391182 20.949559-20.949559 20.949559L358.3097 912.389418l0-82.353439L297.628219 830.035979l0 82.353439L133.28254 912.389418c-11.558377 0-20.949559-9.391182-20.949559-20.949559l0-98.968607c46.955908-28.534744 78.019048-81.269841 78.019048-141.590123s-31.424339-112.69418-78.019048-141.590123l0-98.968607c0-11.558377 9.391182-20.949559 20.949559-20.949559l164.706878 0 0 53.818695 60.681481 0 0-53.818695 532.40776 0c11.558377 0 20.949559 9.391182 20.949559 20.949559L912.028219 514.347795 911.667019 514.347795 911.667019 514.347795zM911.667019 514.347795" fill="#2c2c2c" /><path d="M797.889242 244.170723 325.801764 54.179894c-22.394356-9.029982-47.678307 1.805996-56.34709 24.200353l-22.755556 56.34709-6.501587 16.253968 39.370723 8.307584 22.755556-56.708289c2.889594-7.223986 10.835979-10.47478 17.698765-7.585185l314.604586 126.419753L797.889242 244.170723 797.889242 244.170723zM797.889242 244.170723" fill="#2c2c2c" /><path d="M837.982363 284.625044c-7.946384-11.919577-20.58836-20.58836-35.75873-23.116755L189.990829 165.790476c-28.534744-4.334392-55.263492 15.17037-59.597884 43.343915l-11.197178 72.239859-6.140388 38.287125-0.361199 2.167196c1.805996 0 3.611993-0.361199 5.417989-0.361199l61.40388 0c-4.695591-5.779189-10.11358-11.197178-15.892769-16.253968l11.919577-76.93545c1.444797-9.029982 9.752381-15.17037 18.782363-13.725573l513.264198 80.186243L837.982363 284.625044 837.982363 284.625044zM837.982363 284.625044" fill="#2c2c2c" /></svg>