<?xml version="1.0" standalone="no"?><!DOCTYPE svg PUBLIC "-//W3C//DTD SVG 1.1//EN" "http://www.w3.org/Graphics/SVG/1.1/DTD/svg11.dtd"><svg class="icon" width="32px" height="32.00px" viewBox="0 0 1024 1024" version="1.1" xmlns="http://www.w3.org/2000/svg"><path d="M643.729596 195.646935c-8.646277-7.024997-16.751202-10.807137-22.695837-10.807137-24.316823 0-49.714302 58.898435-65.384847 126.982066 52.956272-31.881105 98.888275-70.245877 101.589917-95.100962C657.238828 214.559681 657.779156 207.534683 643.729596 195.646935zM357.333056 129.184221c-9.726934 0-19.994196 7.565303-26.478136 13.508665-24.316823 22.154579-22.155509 36.743856-21.615181 42.146912 5.943612 39.98569 73.490796 89.697905 138.335315 124.820843C427.04053 220.503043 391.376812 129.184221 357.333056 129.184221zM629.139707 343.162664 373.003602 343.162664c-57.279922-36.743856-116.179806-88.076988-125.366411-147.515728-3.782298-26.477025 0-66.462714 43.229338-104.827487 21.615181-19.453051 43.769666-29.178553 66.465504-29.178553 76.732766 0 121.584113 115.094318 144.819255 204.792223 19.452844-70.245877 55.117585-149.136645 118.881447-149.136645 19.453867 0 39.987368 8.105608 59.981564 24.315802 35.664741 28.638247 40.527696 61.059658 38.366383 83.214237C713.978422 269.674952 672.910397 311.281559 629.139707 343.162664zM830.158227 427.996794c0-15.669888-12.428575-28.097942-27.558793-28.097942L579.965734 399.898853c-15.130217 0-27.558793 12.428054-27.558793 28.097942l0 112.39279c0 15.669888 12.428575 28.097942 27.558793 28.097942l222.632678 0c15.130217 0 27.558793-12.428054 27.558793-28.097942L830.157204 427.996794zM441.090091 652.782374c0-15.129582-12.428575-28.097942-28.099121-28.097942L246.016206 624.684432c-15.130217 0-27.558793 12.968359-27.558793 28.097942l0 225.325885c0 15.669888 12.428575 28.097942 27.558793 28.097942l166.974764 0c15.670546 0 28.099121-12.428054 28.099121-28.097942L441.090091 652.782374zM441.090091 427.996794c0-15.669888-12.428575-28.097942-28.099121-28.097942L190.358292 399.898853c-15.130217 0-27.558793 12.428054-27.558793 28.097942l0 112.39279c0 15.669888 12.428575 28.097942 27.558793 28.097942l222.632678 0c15.670546 0 28.099121-12.428054 28.099121-28.097942L441.090091 427.996794zM552.406941 878.108259c0 15.669888 12.428575 28.097942 27.558793 28.097942l166.974764 0c15.130217 0 27.558793-12.428054 27.558793-28.097942L774.49929 652.782374c0-15.129582-12.428575-28.097942-27.558793-28.097942L579.965734 624.684432c-15.130217 0-27.558793 12.968359-27.558793 28.097942L552.406941 878.108259zM858.257348 652.782374l-28.099121 0 0 281.521768c0 15.669888-12.428575 28.097942-27.558793 28.097942L190.358292 962.402083c-15.130217 0-27.558793-12.428054-27.558793-28.097942l0-281.521768-28.099121 0c-15.130217 0-27.558793-12.428054-27.558793-28.097942L107.141586 371.260605c0-15.129582 12.428575-28.097942 27.558793-28.097942l723.557993 0c15.130217 0 27.558793 12.968359 27.558793 28.097942l0 253.423827C885.816141 640.35432 873.387566 652.782374 858.257348 652.782374z" fill="#2c2c2c" /></svg>