<?xml version="1.0" standalone="no"?><!DOCTYPE svg PUBLIC "-//W3C//DTD SVG 1.1//EN" "http://www.w3.org/Graphics/SVG/1.1/DTD/svg11.dtd"><svg class="icon" width="32px" height="32.00px" viewBox="0 0 1024 1024" version="1.1" xmlns="http://www.w3.org/2000/svg"><path d="M772.374944 733.731168C719.7584 751.960544 656.843488 762.081376 574.278752 765.573344 555.2208 766.401952 537.109824 767.526496 519.235584 768.710208 507.339168 769.479648 495.620288 770.249056 483.783072 770.900096 526.278752 702.303328 559.778144 623.17136 588.18752 542.26384 627.368768 547.70896 668.562368 556.05424 689.514272 576.946944 704.01488 591.388384 714.017344 615.891456 724.61168 641.874208 735.146816 667.561024 747.102432 696.68064 766.160384 722.66336 769.23808 726.865568 771.546336 730.416768 773.38112 733.376064 773.025984 733.494432 772.730048 733.6128 772.374944 733.731168M274.500672 829.435264C253.4304 842.574592 244.730016 841.450048 244.43408 841.509248 239.284896 839.082592 217.918688 809.963008 214.722624 721.598016 207.561088 520.542528 292.789216 254.618944 380.621536 204.19232 395.003776 195.96544 413.588224 195.96544 443.122144 196.734848 467.802784 197.445088 495.797856 198.096128 530.54016 189.928448 537.938432 188.152864 546.757184 186.081344 554.51056 184.542496 558.00256 237.869248 537.287392 308.064064 520.360128 365.415488L516.986528 376.897632C485.381088 484.61648 411.457536 736.512928 274.500672 829.435264M861.627712 652.646112C851.151776 638.38224 842.865696 618.258912 834.224512 597.011072 820.256576 562.979008 804.453856 524.330432 773.025984 493.080128 732.601824 452.774336 676.907616 436.853248 625.060512 428.152864 626.836096 422.175072 628.789248 416.13808 630.564832 410.219456L633.879232 398.91488C655.778144 324.695392 683.062976 232.24656 669.68688 150.924736 664.419328 118.845824 650.214624 94.934592 627.487136 79.782944 589.371232 54.392064 545.691808 64.690464 498.757152 75.758272 483.605504 79.30944 465.494528 78.895136 446.14064 78.362464 410.155424 77.474656 365.647424 76.350144 321.672064 101.563456 172.582048 187.087488 93.62768 514.979008 96.054304 708.872992 97.65232 833.75584 128.54752 913.42048 188.088832 945.676928 202.58944 953.430336 221.647424 960 245.025952 960 271.008704 960 302.318176 951.950688 338.599328 928.868064L339.901408 928.039456C356.769504 916.675712 372.394656 903.477184 387.546304 889.509248 402.93472 890.337856 417.731264 890.811328 431.6992 890.811328 466.145568 890.811328 496.8632 888.799008 526.929792 886.845856 543.975424 885.721312 561.198592 884.5968 579.2504 883.88656 673.652384 879.861888 747.339168 867.669536 811.08272 845.593088 854.702944 830.500608 882.106144 805.760768 892.64128 771.965472 909.509344 717.92848 873.46496 668.744736 861.627712 652.646112" fill="#2c2c2c" /></svg>