<?xml version="1.0" standalone="no"?><!DOCTYPE svg PUBLIC "-//W3C//DTD SVG 1.1//EN" "http://www.w3.org/Graphics/SVG/1.1/DTD/svg11.dtd"><svg class="icon" width="32px" height="32.00px" viewBox="0 0 1024 1024" version="1.1" xmlns="http://www.w3.org/2000/svg"><path d="M893.51 96.643H650.275c-56.773 0-107.262 27.365-138.99 69.598-31.729-42.233-82.224-69.598-138.995-69.598H129.06c-38.313 0-69.498 31.167-69.498 69.497v642.832c0 38.313 31.152 69.498 69.498 69.498h255.451c34.098 33.325 79.467 52.122 126.775 52.122 47.302 0 92.671-18.8 126.775-52.122h255.451c38.313 0 69.498-31.149 69.498-69.498V166.14c0-38.313-31.152-69.497-69.498-69.497z m0 712.329H623.028a34.685 34.685 0 0 0-26.4 12.153c-21.754 25.38-52.87 39.973-85.344 39.973-32.476 0-63.591-14.589-85.345-39.973a34.689 34.689 0 0 0-26.397-12.153H129.06V166.14h243.23c57.486 0 104.246 46.761 104.246 104.242v295.357c0 19.206 15.541 34.75 34.75 34.75s34.75-15.541 34.75-34.75V270.382c0-57.482 46.761-104.242 104.241-104.242h243.235v642.832z m0 0z" /></svg>